<svg width="162" height="30" viewBox="0 0 162 30" fill="none" xmlns="http://www.w3.org/2000/svg">
<path d="M3.52 0.999998H14.24C15.36 0.999998 16.0933 1.28 16.44 1.84C16.8133 2.4 17.0533 3.56 17.16 5.32C17.2933 7.05333 17.36 10.44 17.36 15.48C17.36 20.4933 17.2533 24.1733 17.04 26.52C16.96 27.1333 16.68 27.68 16.2 28.16C15.7467 28.64 15.1333 28.9067 14.36 28.96C12.84 29.0667 11.08 29.12 9.08 29.12C7.08 29.12 5.18667 29.0667 3.4 28.96C2.62667 28.9067 2 28.64 1.52 28.16C1.06667 27.68 0.8 27.1333 0.72 26.52C0.506667 24.1733 0.4 20.4933 0.4 15.48C0.4 10.44 0.453333 7.05333 0.56 5.32C0.693334 3.56 0.933334 2.4 1.28 1.84C1.65333 1.28 2.4 0.999998 3.52 0.999998ZM49.2778 0.999998H53.5578C54.4645 0.999998 55.0911 1.14667 55.4378 1.44C55.8111 1.73333 56.0111 2.33333 56.0378 3.24C56.1978 7.29333 56.2778 11.6533 56.2778 16.32C56.2778 20.9867 56.1845 24.4 55.9978 26.56C55.9445 27.1733 55.7045 27.7333 55.2778 28.24C54.8778 28.7467 54.3445 29 53.6778 29H46.9978C46.0645 29 45.0378 28.6667 43.9178 28C37.7311 24.3467 33.8378 22.12 32.2378 21.32C31.9178 21.1867 31.6511 21.24 31.4378 21.48C31.2511 21.6933 31.1578 22.1067 31.1578 22.72V27.16C31.1578 27.6667 30.9711 28.0667 30.5978 28.36C30.0378 28.8133 28.5978 29.04 26.2778 29.04C25.6378 29.04 25.0111 29.0267 24.3978 29C23.7845 28.9467 23.2778 28.6667 22.8778 28.16C22.5045 27.6533 22.3045 27.1067 22.2778 26.52C22.1978 23.32 22.1578 19.3067 22.1578 14.48C22.1578 9.62667 22.1711 6.46667 22.1978 5C22.2245 3.53333 22.3978 2.50667 22.7178 1.92C23.0378 1.30666 23.6511 0.999998 24.5578 0.999998H28.9578C29.8645 0.999998 30.7978 1.25333 31.7578 1.76C40.0245 6.05333 44.8511 8.54667 46.2378 9.24C46.6911 9.45333 47.0511 9.48 47.3178 9.32C47.5845 9.16 47.7178 8.86667 47.7178 8.44V2.84C47.7178 2.30667 47.8511 1.86667 48.1178 1.52C48.4111 1.17333 48.7978 0.999998 49.2778 0.999998ZM77.2716 23.84V27.2C77.2716 28.3467 76.4849 28.96 74.9116 29.04C73.3649 29.12 71.6716 29.16 69.8316 29.16C68.0182 29.16 65.9382 29.0933 63.5916 28.96C62.8182 28.9067 62.1916 28.64 61.7116 28.16C61.2582 27.68 60.9916 27.1333 60.9116 26.52C60.6982 24.1733 60.5916 20.4933 60.5916 15.48C60.5916 10.44 60.6716 6.77333 60.8316 4.48C60.9916 2.18666 62.1516 1.02666 64.3116 0.999998C66.7916 0.946665 69.4449 0.919999 72.2716 0.919999C75.0982 0.919999 78.1516 0.959999 81.4316 1.04C84.7382 1.12 87.4316 2.36 89.5116 4.76C91.5916 7.16 92.6316 9.8 92.6316 12.68C92.6316 15.56 91.7116 17.9333 89.8716 19.8C88.0316 21.6667 85.3382 22.6 81.7916 22.6H78.6716C78.3249 22.6 78.0049 22.72 77.7116 22.96C77.4182 23.2 77.2716 23.4933 77.2716 23.84ZM77.2316 9.36L77.3116 16.76C77.3116 17.2667 77.5916 17.52 78.1516 17.52C79.8049 17.52 81.0982 17.0667 82.0316 16.16C82.9916 15.2267 83.4716 14.1333 83.4716 12.88C83.4716 11.6267 83.0182 10.5467 82.1116 9.64C81.2316 8.73333 79.9249 8.28 78.1916 8.28C77.5516 8.28 77.2316 8.64 77.2316 9.36ZM112.014 5.2L111.934 8.84V16.56C111.934 17.68 112.28 18.5467 112.974 19.16C113.667 19.7733 114.48 20.08 115.414 20.08C116.347 20.08 117.147 19.7733 117.814 19.16C118.507 18.5467 118.854 17.68 118.854 16.56V4.64C118.854 3.38667 119.014 2.46667 119.334 1.88C119.68 1.29333 120.414 0.999998 121.534 0.999998H125.214C126.067 0.999998 126.654 1.25333 126.974 1.76C127.587 2.66667 127.894 6.17333 127.894 12.28C127.894 14.28 127.867 15.8133 127.814 16.88C127.734 19.04 127.227 20.9733 126.294 22.68C125.387 24.36 124.214 25.7067 122.774 26.72C119.867 28.7733 116.574 29.8 112.894 29.8C108.04 29.8 104.027 28.6667 100.854 26.4C99.2538 25.2533 97.9871 23.7333 97.0538 21.84C96.1471 19.92 95.6804 17.6933 95.6538 15.16C95.6271 13.9067 95.6138 12.0667 95.6138 9.64C95.6138 7.18667 95.6404 5.42666 95.6938 4.36C95.7738 3.26667 95.9871 2.44 96.3338 1.88C96.7071 1.29333 97.4404 0.999998 98.5338 0.999998H109.214C110.28 0.999998 110.987 1.28 111.334 1.84C111.787 2.56 112.014 3.68 112.014 5.2ZM154.644 26.56C154.618 27.1467 154.364 27.6933 153.884 28.2C153.404 28.68 152.764 28.9467 151.964 29C150.444 29.1067 148.618 29.16 146.484 29.16C144.351 29.16 142.391 29.1067 140.604 29C139.804 28.9467 139.164 28.68 138.684 28.2C138.204 27.6933 137.951 27.1467 137.924 26.56C137.844 22.5067 137.804 19.0533 137.804 16.2C137.804 13.32 137.818 11.2133 137.844 9.88C137.844 8.86667 137.391 8.36 136.484 8.36H132.884C132.324 8.36 131.871 8.22667 131.524 7.96C131.178 7.69333 130.978 7.22667 130.924 6.56C130.898 5.89333 130.884 5.2 130.884 4.48C130.884 3.76 130.898 3.14666 130.924 2.64C130.978 2.10667 131.191 1.70667 131.564 1.44C131.964 1.14667 132.391 0.999998 132.844 0.999998C136.311 0.946665 141.004 0.919999 146.924 0.919999C152.844 0.919999 157.084 0.946665 159.644 0.999998C160.098 1.02666 160.511 1.17333 160.884 1.44C161.284 1.70667 161.498 2.10667 161.524 2.64C161.578 3.14666 161.604 3.74667 161.604 4.44C161.604 5.13333 161.591 5.8 161.564 6.44C161.484 7.64 160.831 8.24 159.604 8.24H156.004C155.098 8.24 154.644 8.70666 154.644 9.64C154.724 13 154.764 16.04 154.764 18.76C154.764 21.48 154.724 24.08 154.644 26.56Z" fill="white"/>
</svg>
