<svg width="19" height="23" viewBox="0 0 19 23" fill="none" xmlns="http://www.w3.org/2000/svg">
<path d="M15.7963 21.6C14.5713 22.7875 13.2338 22.6 11.9463 22.0375C10.5838 21.4625 9.33385 21.4375 7.89635 22.0375C6.09635 22.8125 5.14635 22.5875 4.07135 21.6C-2.02865 15.3125 -1.12865 5.7375 5.79635 5.3875C7.48385 5.475 8.65885 6.3125 9.64635 6.3875C11.1213 6.0875 12.5338 5.225 14.1088 5.3375C15.9963 5.4875 17.4213 6.2375 18.3588 7.5875C14.4588 9.925 15.3838 15.0625 18.9588 16.5C18.2463 18.375 17.3213 20.2375 15.7838 21.6125L15.7963 21.6ZM9.52135 5.3125C9.33385 2.525 11.5963 0.225 14.1963 0C14.5588 3.225 11.2713 5.625 9.52135 5.3125Z" fill="black"/>
</svg>
