<svg width="111" height="38" viewBox="0 0 111 38" fill="none" xmlns="http://www.w3.org/2000/svg">
<path d="M8.68 30.28C6.25333 30.28 4.26667 29.8267 2.72 28.92C1.17333 28.0133 0.4 26.5333 0.4 24.48C0.4 24.2667 0.4 24.08 0.4 23.92C0.426667 23.7333 0.453333 23.5867 0.48 23.48C0.586667 22.7333 0.813333 21.8133 1.16 20.72C1.50667 19.6267 1.90667 18.4667 2.36 17.24C2.81333 15.9867 3.25333 14.76 3.68 13.56C4.10667 12.36 4.46667 11.2667 4.76 10.28C5.05333 9.26667 5.2 8.45333 5.2 7.84C5.2 7.14667 4.97333 6.8 4.52 6.8C4.01333 6.8 3.38667 7.18667 2.64 7.96C1.89333 8.70667 1.10667 9.76 0.28 11.12L0.0400001 11C0.0400001 9.24 0.386667 7.72 1.08 6.44C1.77333 5.16 2.69333 4.10667 3.84 3.28C4.98667 2.42666 6.26667 1.8 7.68 1.4C9.09333 0.999999 10.52 0.799999 11.96 0.799999C13.7467 0.799999 15.4267 1.09333 17 1.68C18.5733 2.24 19.8533 3.05333 20.84 4.12C21.8533 5.18667 22.36 6.49333 22.36 8.04C22.36 10.8133 20.6667 12.9733 17.28 14.52C19.28 14.9733 20.7467 15.7333 21.68 16.8C22.6133 17.8667 23.08 19.0533 23.08 20.36C23.08 21.5067 22.7333 22.6667 22.04 23.84C21.3733 24.9867 20.4133 26.0533 19.16 27.04C17.9067 28 16.3867 28.7867 14.6 29.4C12.84 29.9867 10.8667 30.28 8.68 30.28ZM10.24 13.32C11.4667 13.3467 12.5333 13.16 13.44 12.76C14.3733 12.3333 15.0933 11.8 15.6 11.16C16.1333 10.4933 16.4 9.81333 16.4 9.12C16.4 8.21333 15.92 7.41333 14.96 6.72C14 6 12.4933 5.64 10.44 5.64C10.5467 6.14667 10.6133 6.65333 10.64 7.16C10.6933 7.66666 10.72 8.16 10.72 8.64C10.72 9.41333 10.6667 10.1867 10.56 10.96C10.48 11.7333 10.3733 12.52 10.24 13.32ZM9.8 25.4C10.9467 25.4 11.96 25.1733 12.84 24.72C13.72 24.24 14.4133 23.64 14.92 22.92C15.4267 22.1733 15.68 21.4133 15.68 20.64C15.68 19.5733 15.1733 18.5867 14.16 17.68C13.1467 16.7733 11.56 16.2133 9.4 16C9.29333 16.8267 9.06667 17.7067 8.72 18.64C8.4 19.5733 8.09333 20.4667 7.8 21.32C7.50667 22.1733 7.36 22.92 7.36 23.56C7.36 24.12 7.53333 24.5733 7.88 24.92C8.22667 25.24 8.86667 25.4 9.8 25.4ZM29.8928 30.16C29.1728 30.16 28.4661 29.9867 27.7728 29.64C27.1061 29.2667 26.5595 28.68 26.1328 27.88C25.7061 27.08 25.4928 26.0533 25.4928 24.8C25.4928 23.68 25.6395 22.3733 25.9328 20.88C26.2528 19.36 26.5995 17.7867 26.9728 16.16C27.3728 14.5333 27.7195 12.9467 28.0128 11.4C28.3061 9.85333 28.4395 8.48 28.4128 7.28C28.4128 6.13333 28.2795 5.32 28.0128 4.84L27.9728 4.72C28.2661 3.86667 28.7861 3.2 29.5328 2.72C30.2795 2.24 31.0661 2 31.8928 2C32.8261 2 33.6528 2.36 34.3728 3.08C35.1195 3.77333 35.4928 4.94667 35.4928 6.6C35.4928 7.48 35.3861 8.53333 35.1728 9.76C34.9595 10.96 34.7061 12.2533 34.4128 13.64C34.1195 15 33.8128 16.3467 33.4928 17.68C33.1995 19.0133 32.9461 20.24 32.7328 21.36C32.5195 22.48 32.4128 23.4 32.4128 24.12C32.4128 24.8667 32.5195 25.3867 32.7328 25.68C32.9461 25.9467 33.1861 26.08 33.4528 26.08C33.7461 26.08 34.0261 25.9733 34.2928 25.76C34.5595 25.52 34.7328 25.3067 34.8128 25.12L35.1328 25.2C35.1061 26.16 34.8261 27.0133 34.2928 27.76C33.7861 28.5067 33.1328 29.0933 32.3328 29.52C31.5595 29.9467 30.7461 30.16 29.8928 30.16ZM42.8794 30.16C41.6794 30.16 40.666 29.6667 39.8394 28.68C39.0394 27.6933 38.6394 26.3733 38.6394 24.72C38.6394 23.8133 38.746 22.84 38.9594 21.8C39.1727 20.76 39.386 19.7733 39.5994 18.84C39.786 18.1467 39.9327 17.5067 40.0394 16.92C40.1727 16.3067 40.2394 15.8133 40.2394 15.44C40.2394 14.96 40.1327 14.6133 39.9194 14.4C39.7327 14.1867 39.506 14.08 39.2394 14.08C38.9727 14.08 38.706 14.1733 38.4394 14.36C38.1727 14.52 37.9594 14.7733 37.7994 15.12L37.4794 15C37.4794 13.9067 37.746 12.9733 38.2794 12.2C38.8127 11.4267 39.4927 10.84 40.3194 10.44C41.146 10.04 41.986 9.84 42.8394 9.84C43.5327 9.84 44.1994 9.98667 44.8394 10.28C45.4794 10.5467 45.9994 10.9733 46.3994 11.56C46.826 12.1467 47.0394 12.88 47.0394 13.76C47.0394 14.2933 46.9594 14.9333 46.7994 15.68C46.666 16.4267 46.506 17.2 46.3194 18C46.1327 18.8267 45.946 19.6667 45.7594 20.52C45.5994 21.3467 45.5194 22.08 45.5194 22.72C45.5194 23.3067 45.6127 23.7867 45.7994 24.16C45.986 24.5333 46.266 24.72 46.6394 24.72C47.3327 24.72 48.106 24.08 48.9594 22.8C49.8394 21.52 50.546 19.8 51.0794 17.64C51.186 17.2133 51.2794 16.76 51.3594 16.28C51.4394 15.8 51.4794 15.3067 51.4794 14.8C51.4794 14.4 51.4527 14 51.3994 13.6C51.346 13.1733 51.266 12.7467 51.1594 12.32V12.04C51.586 11.32 52.1327 10.7733 52.7994 10.4C53.4927 10.0267 54.186 9.84 54.8794 9.84C55.8127 9.84 56.6527 10.16 57.3994 10.8C58.146 11.44 58.5194 12.3733 58.5194 13.6C58.5194 14.32 58.386 15.16 58.1194 16.12C57.8527 17.0533 57.5594 18.0267 57.2394 19.04C56.9194 20.0267 56.626 21 56.3594 21.96C56.0927 22.92 55.9594 23.7733 55.9594 24.52C55.9594 25.6133 56.346 26.16 57.1194 26.16C57.3327 26.16 57.586 26.1067 57.8794 26C58.1994 25.8667 58.4927 25.6133 58.7594 25.24L59.0394 25.32C59.0394 26.28 58.7727 27.1333 58.2394 27.88C57.7327 28.6 57.0794 29.16 56.2794 29.56C55.4794 29.96 54.6527 30.16 53.7994 30.16C52.706 30.16 51.7194 29.76 50.8394 28.96C49.986 28.16 49.5594 26.8533 49.5594 25.04V24.96C48.466 26.8267 47.3327 28.16 46.1594 28.96C44.986 29.76 43.8927 30.16 42.8794 30.16ZM65.7941 30.16C64.8341 30.16 63.9807 29.7733 63.2341 29C62.4874 28.2 62.1141 27.08 62.1141 25.64C62.1141 24.9467 62.1941 24.16 62.3541 23.28C62.5141 22.4 62.7007 21.5067 62.9141 20.6C63.1274 19.6667 63.3141 18.8 63.4741 18C63.6341 17.1733 63.7141 16.4933 63.7141 15.96C63.7141 15.4 63.6074 14.96 63.3941 14.64C63.2074 14.2933 62.9541 14.12 62.6341 14.12C62.1274 14.12 61.6074 14.4667 61.0741 15.16L60.8341 15C60.8074 14.5733 60.9007 14.0667 61.1141 13.48C61.3274 12.8933 61.6607 12.3333 62.1141 11.8C62.5674 11.24 63.1407 10.7733 63.8341 10.4C64.5541 10.0267 65.3941 9.84 66.3541 9.84C67.7674 9.84 68.7941 10.2533 69.4341 11.08C70.0741 11.88 70.3941 12.8533 70.3941 14C70.3941 14.1867 70.3807 14.3867 70.3541 14.6C70.3541 14.7867 70.3407 14.9733 70.3141 15.16C71.2741 13.4267 72.2741 12.1067 73.3141 11.2C74.3807 10.2667 75.3674 9.8 76.2741 9.8C77.1274 9.8 77.7541 10.1333 78.1541 10.8C78.5541 11.4667 78.7541 12.2667 78.7541 13.2C78.7541 14.0533 78.5807 14.92 78.2341 15.8C77.9141 16.68 77.4207 17.4133 76.7541 18C76.1141 18.56 75.3274 18.8267 74.3941 18.8L74.2341 18.72C74.2074 18.0267 73.9807 17.48 73.5541 17.08C73.1274 16.68 72.6474 16.48 72.1141 16.48C71.3941 16.48 70.7141 16.84 70.0741 17.56C69.4607 18.28 69.1541 19.32 69.1541 20.68C69.1541 21.5067 69.2474 22.4 69.4341 23.36C69.6207 24.32 69.7141 25.1333 69.7141 25.8C69.7141 26.6 69.5274 27.3333 69.1541 28C68.7807 28.6667 68.3007 29.2 67.7141 29.6C67.1274 29.9733 66.4874 30.16 65.7941 30.16ZM84.0725 30.16C83.3525 30.16 82.6458 29.9867 81.9525 29.64C81.2858 29.2667 80.7392 28.68 80.3125 27.88C79.8858 27.08 79.6725 26.0533 79.6725 24.8C79.6725 23.68 79.8192 22.3733 80.1125 20.88C80.4325 19.36 80.7792 17.7867 81.1525 16.16C81.5525 14.5333 81.8992 12.9467 82.1925 11.4C82.4858 9.85333 82.6192 8.48 82.5925 7.28C82.5925 6.13333 82.4592 5.32 82.1925 4.84L82.1525 4.72C82.4458 3.86667 82.9658 3.2 83.7125 2.72C84.4592 2.24 85.2458 2 86.0725 2C87.0058 2 87.8325 2.36 88.5525 3.08C89.2992 3.77333 89.6725 4.94667 89.6725 6.6C89.6725 7.48 89.5658 8.53333 89.3525 9.76C89.1392 10.96 88.8858 12.2533 88.5925 13.64C88.2992 15 87.9925 16.3467 87.6725 17.68C87.3792 19.0133 87.1258 20.24 86.9125 21.36C86.6992 22.48 86.5925 23.4 86.5925 24.12C86.5925 24.8667 86.6992 25.3867 86.9125 25.68C87.1258 25.9467 87.3658 26.08 87.6325 26.08C87.9258 26.08 88.2058 25.9733 88.4725 25.76C88.7392 25.52 88.9125 25.3067 88.9925 25.12L89.3125 25.2C89.2858 26.16 89.0058 27.0133 88.4725 27.76C87.9658 28.5067 87.3125 29.0933 86.5125 29.52C85.7392 29.9467 84.9258 30.16 84.0725 30.16ZM99.9409 38C98.6076 38 97.5276 37.5867 96.7009 36.76C95.9009 35.96 95.5009 34.8667 95.5009 33.48C95.5009 32.76 95.6209 31.96 95.8609 31.08C96.1276 30.2267 96.5543 29.32 97.1409 28.36C95.8343 28.28 94.7543 27.84 93.9009 27.04C93.0743 26.24 92.6609 25.0267 92.6609 23.4C92.6609 22.44 92.7809 21.4133 93.0209 20.32C93.2876 19.2 93.5409 18.16 93.7809 17.2C94.0209 16.2133 94.1409 15.4533 94.1409 14.92C94.1409 14.52 94.0609 14.24 93.9009 14.08C93.7409 13.8933 93.5543 13.8 93.3409 13.8C93.1276 13.8 92.8876 13.8933 92.6209 14.08C92.3809 14.24 92.1943 14.4933 92.0609 14.84L91.3809 14.12C91.5409 13.2933 91.8876 12.56 92.4209 11.92C92.9543 11.28 93.6076 10.7733 94.3809 10.4C95.1543 10.0267 95.9543 9.84 96.7809 9.84C97.7143 9.84 98.5276 10.1467 99.2209 10.76C99.9143 11.3467 100.261 12.4267 100.261 14C100.261 14.9867 100.141 16.0533 99.9009 17.2C99.6609 18.32 99.4209 19.3867 99.1809 20.4C98.9409 21.3867 98.8209 22.1733 98.8209 22.76C98.8209 23.2933 98.9276 23.6933 99.1409 23.96C99.3809 24.2 99.6476 24.32 99.9409 24.32C100.314 24.32 100.741 24.12 101.221 23.72C101.701 23.2933 102.154 22.6 102.581 21.64C103.008 20.68 103.288 19.3867 103.421 17.76C103.474 17.2533 103.514 16.6133 103.541 15.84C103.568 15.04 103.594 14.3067 103.621 13.64C103.648 12.9467 103.661 12.52 103.661 12.36C103.661 11.4 104.008 10.7333 104.701 10.36C105.421 9.96 106.208 9.76 107.061 9.76C107.808 9.76 108.514 9.90667 109.181 10.2C109.848 10.4933 110.301 10.9867 110.541 11.68L110.621 11.92C110.381 12.1333 110.168 12.8533 109.981 14.08C109.821 15.3067 109.621 16.9467 109.381 19C109.221 20.3333 109.021 21.84 108.781 23.52C108.541 25.2 108.208 26.8933 107.781 28.6C107.381 30.28 106.834 31.8267 106.141 33.24C105.474 34.68 104.634 35.8267 103.621 36.68C102.608 37.56 101.381 38 99.9409 38ZM98.9809 33.4C99.8076 33.4 100.541 32.64 101.181 31.12C101.848 29.6267 102.368 27.4933 102.741 24.72C101.034 26.9067 99.8609 28.6267 99.2209 29.88C98.5809 31.1333 98.2609 32.04 98.2609 32.6C98.2609 33.1333 98.5009 33.4 98.9809 33.4Z" fill="url(#paint0_linear_9_68)"/>
<defs>
<linearGradient id="paint0_linear_9_68" x1="63.5" y1="-18" x2="63.5" y2="40" gradientUnits="userSpaceOnUse">
<stop offset="0.35" stop-color="#0095FF"/>
<stop offset="0.78" stop-color="#D14FEB"/>
</linearGradient>
</defs>
</svg>
