<svg width="259" height="47" viewBox="0 0 259 47" fill="none" xmlns="http://www.w3.org/2000/svg">
<path d="M5.832 0.199997H22.984C24.776 0.199997 25.9493 0.647998 26.504 1.544C27.1013 2.44 27.4853 4.296 27.656 7.112C27.8693 9.88533 27.976 15.304 27.976 23.368C27.976 31.3893 27.8053 37.2773 27.464 41.032C27.336 42.0133 26.888 42.888 26.12 43.656C25.3947 44.424 24.4133 44.8507 23.176 44.936C20.744 45.1067 17.928 45.192 14.728 45.192C11.528 45.192 8.49867 45.1067 5.64 44.936C4.40267 44.8507 3.4 44.424 2.632 43.656C1.90667 42.888 1.48 42.0133 1.352 41.032C1.01067 37.2773 0.84 31.3893 0.84 23.368C0.84 15.304 0.925333 9.88533 1.096 7.112C1.30933 4.296 1.69333 2.44 2.248 1.544C2.84533 0.647998 4.04 0.199997 5.832 0.199997ZM79.0445 0.199997H85.8925C87.3432 0.199997 88.3458 0.434664 88.9005 0.903999C89.4978 1.37333 89.8178 2.33333 89.8605 3.784C90.1165 10.2693 90.2445 17.2453 90.2445 24.712C90.2445 32.1787 90.0952 37.64 89.7965 41.096C89.7112 42.0773 89.3272 42.9733 88.6445 43.784C88.0045 44.5947 87.1512 45 86.0845 45H75.3965C73.9032 45 72.2605 44.4667 70.4685 43.4C60.5698 37.5547 54.3405 33.992 51.7805 32.712C51.2685 32.4987 50.8418 32.584 50.5005 32.968C50.2018 33.3093 50.0525 33.9707 50.0525 34.952V42.056C50.0525 42.8667 49.7538 43.5067 49.1565 43.976C48.2605 44.7013 45.9565 45.064 42.2445 45.064C41.2205 45.064 40.2178 45.0427 39.2365 45C38.2552 44.9147 37.4445 44.4667 36.8045 43.656C36.2072 42.8453 35.8872 41.9707 35.8445 41.032C35.7165 35.912 35.6525 29.4907 35.6525 21.768C35.6525 14.0027 35.6738 8.94667 35.7165 6.6C35.7592 4.25333 36.0365 2.61066 36.5485 1.672C37.0605 0.690664 38.0418 0.199997 39.4925 0.199997H46.5325C47.9832 0.199997 49.4765 0.60533 51.0125 1.416C64.2392 8.28533 71.9618 12.2747 74.1805 13.384C74.9058 13.7253 75.4818 13.768 75.9085 13.512C76.3352 13.256 76.5485 12.7867 76.5485 12.104V3.144C76.5485 2.29066 76.7618 1.58666 77.1885 1.032C77.6578 0.477331 78.2765 0.199997 79.0445 0.199997ZM123.835 36.744V42.12C123.835 43.9547 122.576 44.936 120.059 45.064C117.584 45.192 114.875 45.256 111.931 45.256C109.029 45.256 105.701 45.1493 101.947 44.936C100.709 44.8507 99.7065 44.424 98.9385 43.656C98.2132 42.888 97.7865 42.0133 97.6585 41.032C97.3172 37.2773 97.1465 31.3893 97.1465 23.368C97.1465 15.304 97.2745 9.43733 97.5305 5.768C97.7865 2.09866 99.6425 0.242663 103.099 0.199997C107.067 0.114665 111.312 0.0719986 115.835 0.0719986C120.357 0.0719986 125.243 0.135998 130.491 0.263996C135.781 0.391997 140.091 2.376 143.419 6.216C146.747 10.056 148.411 14.28 148.411 18.888C148.411 23.496 146.939 27.2933 143.995 30.28C141.051 33.2667 136.741 34.76 131.067 34.76H126.075C125.52 34.76 125.008 34.952 124.539 35.336C124.069 35.72 123.835 36.1893 123.835 36.744ZM123.771 13.576L123.899 25.416C123.899 26.2267 124.347 26.632 125.243 26.632C127.888 26.632 129.957 25.9067 131.451 24.456C132.987 22.9627 133.755 21.2133 133.755 19.208C133.755 17.2027 133.029 15.4747 131.579 14.024C130.171 12.5733 128.08 11.848 125.307 11.848C124.283 11.848 123.771 12.424 123.771 13.576ZM179.422 6.92L179.294 12.744V25.096C179.294 26.888 179.849 28.2747 180.958 29.256C182.067 30.2373 183.369 30.728 184.862 30.728C186.355 30.728 187.635 30.2373 188.702 29.256C189.811 28.2747 190.366 26.888 190.366 25.096V6.024C190.366 4.01867 190.622 2.54667 191.134 1.608C191.689 0.669331 192.862 0.199997 194.654 0.199997H200.542C201.907 0.199997 202.846 0.60533 203.358 1.416C204.339 2.86666 204.83 8.47733 204.83 18.248C204.83 21.448 204.787 23.9013 204.702 25.608C204.574 29.064 203.763 32.1573 202.27 34.888C200.819 37.576 198.942 39.7307 196.638 41.352C191.987 44.6373 186.718 46.28 180.83 46.28C173.065 46.28 166.643 44.4667 161.566 40.84C159.006 39.0053 156.979 36.5733 155.486 33.544C154.035 30.472 153.289 26.9093 153.246 22.856C153.203 20.8507 153.182 17.9067 153.182 14.024C153.182 10.0987 153.225 7.28266 153.31 5.576C153.438 3.82667 153.779 2.504 154.334 1.608C154.931 0.669331 156.105 0.199997 157.854 0.199997H174.942C176.649 0.199997 177.779 0.647998 178.334 1.544C179.059 2.696 179.422 4.488 179.422 6.92ZM247.631 41.096C247.588 42.0347 247.183 42.9093 246.415 43.72C245.647 44.488 244.623 44.9147 243.343 45C240.911 45.1707 237.988 45.256 234.575 45.256C231.162 45.256 228.026 45.1707 225.167 45C223.887 44.9147 222.863 44.488 222.095 43.72C221.327 42.9093 220.922 42.0347 220.879 41.096C220.751 34.6107 220.687 29.0853 220.687 24.52C220.687 19.912 220.708 16.5413 220.751 14.408C220.751 12.7867 220.026 11.976 218.575 11.976H212.815C211.919 11.976 211.194 11.7627 210.639 11.336C210.084 10.9093 209.764 10.1627 209.679 9.096C209.636 8.02933 209.615 6.92 209.615 5.768C209.615 4.616 209.636 3.63466 209.679 2.824C209.764 1.97066 210.106 1.33067 210.703 0.903999C211.343 0.434664 212.026 0.199997 212.751 0.199997C218.298 0.114665 225.807 0.0719986 235.279 0.0719986C244.751 0.0719986 251.535 0.114665 255.631 0.199997C256.356 0.242663 257.018 0.477331 257.615 0.903999C258.255 1.33067 258.596 1.97066 258.639 2.824C258.724 3.63466 258.767 4.59466 258.767 5.704C258.767 6.81333 258.746 7.88 258.703 8.904C258.575 10.824 257.53 11.784 255.567 11.784H249.807C248.356 11.784 247.631 12.5307 247.631 14.024C247.759 19.4 247.823 24.264 247.823 28.616C247.823 32.968 247.759 37.128 247.631 41.096Z" fill="black"/>
</svg>
